:FULLY-SPECIFIED
:DEGREES
1040
root 6.67749 16.4031 -3.00737 3608.72 -85.2888 -3596.11
lowerback 1.20323 -1.19506 2.96098
upperback 3.05841 -1.66139 0.796678
thorax 2.40694 -0.789218 -0.854869
lowerneck -20.0816 2.79958 -3.18452
upperneck 36.217 3.85411 1.48475
head 16.2182 1.02969 1.85601
rclavicle -1.76918e-014 -1.19271e-015
rhumerus -34.629 -27.0145 -70.452
rradius 14.387
rwrist 46.4294
rhand -15.2101 -12.3635
rfingers 7.12502
rthumb 10.9621 -42.0573
lclavicle -1.76918e-014 -1.19271e-015
lhumerus -24.4729 -5.41556 81.8491
lradius 54.027
lwrist 13.8919
lhand -32.2366 2.31288
lfingers 7.12502
lthumb -5.47713 32.2221
rfemur -41.089 -0.0500197 21.9385
rtibia 39.0109
rfoot -5.12553 -1.72334
rtoes -6.31448
lfemur -14.1823 4.01928 -16.6087
ltibia 56.7672
lfoot 5.4484 -2.89256
ltoes -20.04
1041
root 6.68796 16.4399 -3.02111 3614.75 -85.0152 -3601.98
lowerback 1.10268 -1.04719 3.42211
upperback 2.94253 -1.47055 0.97764
thorax 2.34569 -0.687627 -0.926185
lowerneck -20.0198 2.65769 -3.16956
upperneck 36.4157 3.57505 1.5952
head 16.3109 0.924178 1.8512
rclavicle -7.55382e-015 -1.31198e-014
rhumerus -33.9091 -25.2195 -71.5966
rradius 14.8454
rwrist 44.1429
rhand -15.1567 -12.5758
rfingers 7.12502
rthumb 11.0136 -42.2668
lclavicle -7.55382e-015 -1.31198e-014
lhumerus -24.8823 -5.31333 82.4828
lradius 53.5161
lwrist 13.417
lhand -31.6651 2.58119
lfingers 7.12502
lthumb -4.92533 32.5039
rfemur -40.1899 -0.00273549 22.6145
rtibia 38.7086
rfoot -5.72712 -1.96423
rtoes -6.16835
lfemur -16.387 4.22705 -15.8667
ltibia 59.2865
lfoot 5.34228 -2.76957
ltoes -19.7255
1042
root 6.69842 16.4733 -3.03762 3616.97 -84.8291 -3604.1
lowerback 1.04064 -0.903175 3.44525
upperback 2.85958 -1.28189 1.12689
thorax 2.30564 -0.596169 -0.7849
lowerneck -19.995 2.52808 -3.20681
upperneck 36.5911 3.35784 1.65839
head 16.3999 0.831358 1.84708
rclavicle 1.27222e-014 -2.22639e-014
rhumerus -33.2624 -23.8488 -72.3292
rradius 15.1663
rwrist 42.9674
rhand -15.0771 -12.0911
rfingers 7.12502
rthumb 11.0904 -41.778
lclavicle 1.27222e-014 -2.22639e-014
lhumerus -25.3605 -5.20725 83.1519
lradius 52.9687
lwrist 12.734
lhand -31.1895 2.85744
lfingers 7.12502
lthumb -4.46609 32.7904
rfemur -39.2278 0.408262 22.846
rtibia 38.4302
rfoot -6.40761 -2.55169
rtoes -5.90906
lfemur -18.4754 4.46028 -15.5262
ltibia 61.488
lfoot 5.03611 -2.76321
ltoes -19.8225
1043
root 6.71112 16.5124 -3.0534 3618.03 -84.832 -3605.07
lowerback 1.01347 -0.746731 3.30082
upperback 2.78257 -1.07307 1.22838
thorax 2.25353 -0.497537 -0.598263
lowerneck -19.9467 2.43735 -3.24225
upperneck 36.7058 3.20367 1.71201
head 16.4505 0.766103 1.84869
rclavicle -8.34896e-015 5.52621e-014
rhumerus -32.5253 -22.199 -73.23
rradius 15.5935
rwrist 41.7183
rhand -14.9843 -12.3797
rfingers 7.12502
rthumb 11.1799 -42.0618
lclavicle -8.34896e-015 5.52621e-014
lhumerus -25.9269 -4.85423 83.7319
lradius 52.3989
lwrist 11.8331
lhand -30.4496 3.00776
lfingers 7.12502
lthumb -3.75159 32.9545
rfemur -38.2833 0.584261 23.053
rtibia 38.1553
rfoot -6.9853 -2.67877
rtoes -5.81946
lfemur -20.4516 4.80483 -15.3988
ltibia 63.2954
lfoot 4.80088 -2.75828
ltoes -19.6818
1044
root 6.72962 16.5449 -3.06586 3618.19 -85.0125 -3605.1
lowerback 0.97961 -0.548129 3.08185
upperback 2.70659 -0.805478 1.2472
thorax 2.20585 -0.369403 -0.454362
lowerneck -19.9176 2.36386 -3.28299
upperneck 36.7687 3.07161 1.79574
head 16.4775 0.716626 1.86828
rclavicle 3.57812e-015 -1.27222e-014
rhumerus -31.7982 -20.9876 -73.9562
rradius 16.0003
rwrist 40.6486
rhand -15.926 -11.6766
rfingers 7.12502
rthumb 10.2716 -41.4058
lclavicle 3.57812e-015 -1.27222e-014
lhumerus -26.4824 -4.64992 84.2307
lradius 51.7327
lwrist 11.0053
lhand -29.6992 2.9913
lfingers 7.12502
lthumb -3.02693 32.9496
rfemur -37.4235 0.858051 23.1045
rtibia 37.9077
rfoot -7.59466 -2.78989
rtoes -5.79842
lfemur -22.4139 5.24555 -15.498
ltibia 64.7765
lfoot 4.42903 -2.74943
ltoes -19.6561
1045
root 6.74338 16.5798 -3.07918 3617.36 -85.2199 -3604.23
lowerback 0.937221 -0.346743 2.79903
upperback 2.685 -0.534612 1.19996
thorax 2.21678 -0.2389 -0.342589
lowerneck -19.8792 2.29369 -3.27214
upperneck 36.8067 2.9277 1.87307
head 16.4914 0.669918 1.87314
rclavicle -1.11319e-014 -1.90833e-014
rhumerus -31.0789 -19.4822 -74.9037
rradius 16.6006
rwrist 39.1513
rhand -16.4285 -12.0362
rfingers 7.12502
rthumb 9.78675 -41.7888
lclavicle -1.11319e-014 -1.90833e-014
lhumerus -27.0104 -4.4796 84.6188
lradius 50.9249
lwrist 10.0204
lhand -28.9497 2.75418
lfingers 7.12502
lthumb -2.30309 32.7215
rfemur -36.4276 1.09003 23.0865
rtibia 37.6336
rfoot -8.20819 -2.84074
rtoes -6.18577
lfemur -24.1778 5.6487 -15.7249
ltibia 65.8875
lfoot 4.04966 -2.83607
ltoes -19.5554
1046
root 6.75907 16.6115 -3.09191 3617.58 -85.5474 -3604.42
lowerback 0.904765 -0.079542 2.62249
upperback 2.656 -0.174783 1.10815
thorax 2.21429 -0.0613599 -0.334572
lowerneck -19.8123 2.22904 -3.14653
upperneck 36.7645 2.77858 1.88283
head 16.4615 0.631513 1.82519
rclavicle 3.18055e-015 -1.98785e-016
rhumerus -30.4832 -18.2711 -75.7347
rradius 17.294
rwrist 37.6837
rhand -16.9237 -12.049
rfingers 7.12502
rthumb 9.30894 -41.8235
lclavicle 3.18055e-015 -1.98785e-016
lhumerus -27.5816 -4.43124 84.9416
lradius 50.0959
lwrist 9.13015
lhand -28.1569 2.3389
lfingers 7.12502
lthumb -1.53743 32.3131
rfemur -35.4475 1.58988 23.0862
rtibia 37.3633
rfoot -8.77895 -2.99962
rtoes -5.61226
lfemur -25.8994 6.16891 -15.941
ltibia 66.7267
lfoot 3.65986 -3.04133
ltoes -19.584
1047
root 6.7775 16.642 -3.10369 3617.94 -85.9705 -3604.73
lowerback 0.910391 0.195802 2.43207
upperback 2.61732 0.198092 0.995264
thorax 2.17982 0.122387 -0.340054
lowerneck -19.7803 2.1853 -3.05234
upperneck 36.7406 2.65979 1.93079
head 16.4466 0.60573 1.8064
rclavicle 0 1.86858e-014
rhumerus -29.928 -17.1155 -76.5341
rradius 18.0883
rwrist 36.572
rhand -17.6308 -12.1252
rfingers 7.12502
rthumb 8.62663 -41.929
lclavicle 0 1.86858e-014
lhumerus -28.1784 -4.39802 85.2083
lradius 49.2826
lwrist 8.78007
lhand -27.5006 1.73187
lfingers 7.12502
lthumb -0.903599 31.7097
rfemur -34.48 2.12731 23.0786
rtibia 37.0751
rfoot -9.311 -3.10927
rtoes -5.40395
lfemur -27.5863 6.71775 -16.2136
ltibia 67.2764
lfoot 3.25292 -3.31458
ltoes -19.1581
1048
root 6.79606 16.6681 -3.11555 3617.93 -86.2219 -3604.72
lowerback 0.933465 0.426786 2.29805
upperback 2.59785 0.511515 0.863925
thorax 2.15396 0.277934 -0.396747
lowerneck -19.7294 2.11978 -2.96381
upperneck 36.6574 2.49565 2.02436
head 16.397 0.569961 1.79855
rclavicle 3.97569e-015 1.80894e-014
rhumerus -29.4063 -15.9799 -77.3519
rradius 18.9822
rwrist 35.0443
rhand -18.4117 -12.3676
rfingers 7.12502
rthumb 7.87303 -42.201
lclavicle 3.97569e-015 1.80894e-014
lhumerus -28.7483 -4.42207 85.4304
lradius 48.3601
lwrist 8.18888
lhand -26.948 1.21665
lfingers 7.12502
lthumb -0.369893 31.1961
rfemur -33.4143 2.60009 23.085
rtibia 36.7523
rfoot -9.88244 -3.34893
rtoes -6.96707
lfemur -29.1978 7.09627 -16.4961
ltibia 67.5781
lfoot 2.74276 -3.71453
ltoes -19.3182
1049
root 6.81586 16.6912 -3.12271 3619.02 -86.5155 -3605.8
lowerback 0.919268 0.642427 2.24753
upperback 2.58784 0.801797 0.754184
thorax 2.15938 0.423502 -0.477866
lowerneck -19.7056 2.08887 -2.88388
upperneck 36.5502 2.42415 2.03638
head 16.3402 0.559914 1.7742
rclavicle 1.82882e-014 1.5704e-014
rhumerus -28.8844 -14.6691 -78.1568
rradius 19.9468
rwrist 33.4836
rhand -19.3729 -12.5648
rfingers 7.12502
rthumb 6.94515 -42.4309
lclavicle 1.82882e-014 1.5704e-014
lhumerus -29.3001 -4.33561 85.5974
lradius 47.451
lwrist 7.55365
lhand -26.0876 1.21152
lfingers 7.12502
lthumb 0.461166 31.1908
rfemur -32.363 3.20758 23.1105
rtibia 36.4032
rfoot -10.5218 -3.58037
rtoes -5.63078
lfemur -30.7839 7.44797 -16.776
ltibia 67.6442
lfoot 2.2331 -4.05379
ltoes -19.4092
1050
root 6.83434 16.7084 -3.12542 3625.4 -86.8358 -3612.17
lowerback 0.889767 0.902796 2.52915
upperback 2.57558 1.14822 0.678094
thorax 2.18 0.603099 -0.709106
lowerneck -19.7004 2.06575 -2.77983
upperneck 36.4729 2.34541 2.07028
head 16.3035 0.552101 1.75475
rclavicle 1.35174e-014 -7.15625e-015
rhumerus -28.42 -13.428 -78.937
rradius 21.0294
rwrist 31.8696
rhand -20.3086 -12.7701
rfingers 7.12502
rthumb 6.04187 -42.664
lclavicle 1.35174e-014 -7.15625e-015
lhumerus -29.8394 -4.19768 85.6986
lradius 46.4562
lwrist 6.8648
lhand -25.4018 0.704219
lfingers 7.12502
lthumb 1.12349 30.681
rfemur -31.2998 3.62012 23.4926
rtibia 36.0206
rfoot -11.0491 -3.5682
rtoes -5.81206
lfemur -32.3249 7.91967 -16.8205
ltibia 67.4935
lfoot 1.67896 -4.46538
ltoes -18.9343
1051
root 6.85645 16.7227 -3.12636 3630.25 -86.9812 -3616.96
lowerback 0.850201 1.09699 2.74737
upperback 2.53959 1.40745 0.602554
thorax 2.1812 0.737786 -0.904985
lowerneck -19.6536 2.05444 -2.71164
upperneck 36.3582 2.30726 2.08294
head 16.2361 0.554033 1.7385
rclavicle 1.43125e-014 1.53561e-014
rhumerus -27.9715 -12.1098 -79.6652
rradius 22.2031
rwrist 29.9543
rhand -21.1807 -13.0596
rfingers 7.12502
rthumb 5.19988 -42.9758
lclavicle 1.43125e-014 1.53561e-014
lhumerus -30.3864 -4.10319 85.8154
lradius 45.4806
lwrist 6.35783
lhand -24.5987 0.991062
lfingers 7.12502
lthumb 1.89916 30.9624
rfemur -30.2966 3.87722 23.798
rtibia 35.6214
rfoot -11.4974 -3.65122
rtoes -6.10633
lfemur -33.9279 8.16325 -16.9864
ltibia 67.1236
lfoot 1.15408 -4.77029
ltoes -18.3615
1052
root 6.8714 16.7361 -3.13205 3632.7 -86.9554 -3619.54
lowerback 0.890521 1.19521 2.82667
upperback 2.59156 1.5381 0.557153
thorax 2.22053 0.805628 -0.99429
lowerneck -19.6518 2.04573 -2.70689
upperneck 36.2517 2.28004 2.14551
head 16.1814 0.558504 1.75819
rclavicle 1.43125e-014 -1.98785e-016
rhumerus -27.5188 -10.8198 -80.3232
rradius 23.3845
rwrist 28.2901
rhand -22.1419 -13.2492
rfingers 7.12502
rthumb 4.27178 -43.1861
lclavicle 1.43125e-014 -1.98785e-016
lhumerus -30.8911 -3.83587 85.8575
lradius 44.482
lwrist 5.86762
lhand -23.8887 0.953781
lfingers 7.12502
lthumb 2.58489 30.9179
rfemur -29.0168 4.06811 24.0771
rtibia 35.2224
rfoot -12.0649 -3.85142
rtoes -6.29153
lfemur -35.2028 8.23923 -17.1532
ltibia 66.4848
lfoot 0.559068 -5.19721
ltoes -17.7939
